<svg width="1920" height="1080" viewBox="0 0 1920 1080" fill="none" xmlns="http://www.w3.org/2000/svg">
<rect width="1920" height="1080" fill="#020617"/>
<mask id="mask0_102_12" style="mask-type:alpha" maskUnits="userSpaceOnUse" x="0" y="0" width="1920" height="1080">
<rect width="1920" height="1080" fill="url(#paint0_linear_102_12)"/>
</mask>
<g mask="url(#mask0_102_12)">
<path d="M0 100 L1920 100" stroke="#1E293B" stroke-width="1"/>
<path d="M0 200 L1920 200" stroke="#1E293B" stroke-width="1"/>
<path d="M0 300 L1920 300" stroke="#1E293B" stroke-width="1"/>
<path d="M0 400 L1920 400" stroke="#1E293B" stroke-width="1"/>
<path d="M0 500 L1920 500" stroke="#1E293B" stroke-width="1"/>
<path d="M0 600 L1920 600" stroke="#1E293B" stroke-width="1"/>
<path d="M0 700 L1920 700" stroke="#1E293B" stroke-width="1"/>
<path d="M0 800 L1920 800" stroke="#1E293B" stroke-width="1"/>
<path d="M0 900 L1920 900" stroke="#1E293B" stroke-width="1"/>
<path d="M0 1000 L1920 1000" stroke="#1E293B" stroke-width="1"/>
<path d="M200 0 L200 1080" stroke="#1E293B" stroke-width="1"/>
<path d="M400 0 L400 1080" stroke="#1E293B" stroke-width="1"/>
<path d="M600 0 L600 1080" stroke="#1E293B" stroke-width="1"/>
<path d="M800 0 L800 1080" stroke="#1E293B" stroke-width="1"/>
<path d="M1000 0 L1000 1080" stroke="#1E293B" stroke-width="1"/>
<path d="M1200 0 L1200 1080" stroke="#1E293B" stroke-width="1"/>
<path d="M1400 0 L1400 1080" stroke="#1E293B" stroke-width="1"/>
<path d="M1600 0 L1600 1080" stroke="#1E293B" stroke-width="1"/>
<path d="M1800 0 L1800 1080" stroke="#1E293B" stroke-width="1"/>
</g>
<circle cx="1600" cy="200" r="150" fill="url(#paint1_radial_102_12)" fill-opacity="0.3"/>
<defs>
<linearGradient id="paint0_linear_102_12" x1="960" y1="0" x2="960" y2="1080" gradientUnits="userSpaceOnUse">
<stop stop-color="#D9D9D9"/>
<stop offset="1" stop-color="#D9D9D9" stop-opacity="0"/>
</linearGradient>
<radialGradient id="paint1_radial_102_12" cx="0" cy="0" r="1" gradientUnits="userSpaceOnUse" gradientTransform="translate(1600 200) rotate(90) scale(150)">
<stop stop-color="#2DD4BF"/>
<stop offset="1" stop-color="#2DD4BF" stop-opacity="0"/>
</radialGradient>
</defs>
</svg>
